<svg width="24" height="24" viewBox="0 0 24 24" fill="none" xmlns="http://www.w3.org/2000/svg">
<path fill-rule="evenodd" clip-rule="evenodd" d="M2.57171 4.60547C2.03915 4.60547 1.60742 5.03719 1.60742 5.56975V18.4269C1.60742 18.9595 2.03915 19.3912 2.57171 19.3912H21.4289C21.9614 19.3912 22.3931 18.9595 22.3931 18.4269V5.56975C22.3931 5.03719 21.9614 4.60547 21.4289 4.60547H2.57171ZM0.107422 5.56975C0.107422 4.20877 1.21072 3.10547 2.57171 3.10547H21.4289C22.7898 3.10547 23.8931 4.20877 23.8931 5.56975V18.4269C23.8931 19.7879 22.7898 20.8912 21.4289 20.8912H2.57171C1.21072 20.8912 0.107422 19.7879 0.107422 18.4269V5.56975Z" fill="#00315C"/>
<path fill-rule="evenodd" clip-rule="evenodd" d="M0.107422 9.85547C0.107422 9.44126 0.443208 9.10547 0.857422 9.10547H23.1431C23.5574 9.10547 23.8931 9.44126 23.8931 9.85547C23.8931 10.2697 23.5574 10.6055 23.1431 10.6055H0.857422C0.443208 10.6055 0.107422 10.2697 0.107422 9.85547ZM15.536 15.8555C15.536 15.4413 15.8718 15.1055 16.286 15.1055H18.8574C19.2716 15.1055 19.6074 15.4413 19.6074 15.8555C19.6074 16.2697 19.2716 16.6055 18.8574 16.6055H16.286C15.8718 16.6055 15.536 16.2697 15.536 15.8555Z" fill="#00315C"/>
</svg>
