<svg width="24" height="18" viewBox="0 0 24 18" fill="none" xmlns="http://www.w3.org/2000/svg">
<path fill-rule="evenodd" clip-rule="evenodd" d="M2.5971 1.60742C2.06454 1.60742 1.63281 2.03915 1.63281 2.57171V15.4289C1.63281 15.9614 2.06454 16.3931 2.5971 16.3931H21.4542C21.9868 16.3931 22.4185 15.9614 22.4185 15.4289V2.57171C22.4185 2.03915 21.9868 1.60742 21.4542 1.60742H2.5971ZM0.132812 2.57171C0.132812 1.21072 1.23611 0.107422 2.5971 0.107422H21.4542C22.8152 0.107422 23.9185 1.21072 23.9185 2.57171V15.4289C23.9185 16.7898 22.8152 17.8931 21.4542 17.8931H2.5971C1.23611 17.8931 0.132812 16.7898 0.132812 15.4289V2.57171Z" fill="white"/>
<path fill-rule="evenodd" clip-rule="evenodd" d="M0.132812 6.85742C0.132812 6.44321 0.468599 6.10742 0.882812 6.10742H23.1685C23.5827 6.10742 23.9185 6.44321 23.9185 6.85742C23.9185 7.27164 23.5827 7.60742 23.1685 7.60742H0.882812C0.468599 7.60742 0.132812 7.27164 0.132812 6.85742ZM15.5614 12.8574C15.5614 12.4432 15.8972 12.1074 16.3114 12.1074H18.8828C19.297 12.1074 19.6328 12.4432 19.6328 12.8574C19.6328 13.2716 19.297 13.6074 18.8828 13.6074H16.3114C15.8972 13.6074 15.5614 13.2716 15.5614 12.8574Z" fill="white"/>
</svg>
