<svg width="25" height="24" viewBox="0 0 25 24" fill="none" xmlns="http://www.w3.org/2000/svg">
<g clip-path="url(#clip0_918_2206)">
<path d="M2.77509 23.8503C2.18667 23.8845 1.60799 23.6889 1.16107 23.3047C0.279644 22.418 0.279644 20.986 1.16107 20.0993L20.4613 0.798977C21.3781 -0.058864 22.8166 -0.0111772 23.6745 0.90558C24.4502 1.7346 24.4954 3.00882 23.7803 3.89069L4.36635 23.3047C3.92519 23.6833 3.35579 23.8786 2.77509 23.8503Z" fill="#1D2A3B"/>
<path d="M22.0535 23.8503C21.4572 23.8478 20.8856 23.611 20.4622 23.1911L1.16186 3.89067C0.345268 2.93708 0.456288 1.50198 1.40988 0.685312C2.26098 -0.0435416 3.51619 -0.0435416 4.36721 0.685312L23.7812 19.9856C24.6977 20.8437 24.7451 22.2823 23.887 23.1989C23.8529 23.2353 23.8176 23.2706 23.7812 23.3047C23.3058 23.7181 22.6802 23.9157 22.0535 23.8503Z" fill="#1D2A3B"/>
</g>
<defs>
<clipPath id="clip0_918_2206">
<rect width="24" height="24" fill="white" transform="translate(0.5)"/>
</clipPath>
</defs>
</svg>
