<svg width="50" height="56" viewBox="0 0 50 56" fill="none" xmlns="http://www.w3.org/2000/svg">
<circle cx="25" cy="25" r="25" fill="#D9D9D9" fill-opacity="0.5"/>
<path d="M17.116 29.95V25.4C17.116 24.2667 17.2327 23.2 17.466 22.2C17.7327 21.2 18.1493 20.2167 18.716 19.25C19.316 18.2833 20.0993 17.3167 21.066 16.35L23.666 18.4C22.966 19.1333 22.3993 19.8333 21.966 20.5C21.5327 21.1333 21.216 21.7833 21.016 22.45C20.8493 23.0833 20.766 23.75 20.766 24.45L19.216 23H24.116V29.95H17.116ZM26.866 29.95V25.4C26.866 24.2667 26.9827 23.2 27.216 22.2C27.4827 21.2 27.8993 20.2167 28.466 19.25C29.066 18.2833 29.8493 17.3167 30.816 16.35L33.416 18.4C32.716 19.1333 32.1494 19.8333 31.716 20.5C31.2827 21.1333 30.966 21.7833 30.766 22.45C30.5994 23.0833 30.516 23.75 30.516 24.45L28.966 23H33.866V29.95H26.866Z" fill="#1D2A3B"/>
</svg>
