<svg width="24" height="24" viewBox="0 0 24 24" fill="none" xmlns="http://www.w3.org/2000/svg">
<path fill-rule="evenodd" clip-rule="evenodd" d="M2.57171 5.03516C2.03915 5.03516 1.60742 5.46688 1.60742 5.99944V17.9994C1.60742 18.532 2.03915 18.9637 2.57171 18.9637H21.4289C21.9614 18.9637 22.3931 18.532 22.3931 17.9994V5.99944C22.3931 5.46688 21.9614 5.03516 21.4289 5.03516H2.57171ZM0.107422 5.99944C0.107422 4.63845 1.21072 3.53516 2.57171 3.53516H21.4289C22.7898 3.53516 23.8931 4.63845 23.8931 5.99944V17.9994C23.8931 19.3604 22.7898 20.4637 21.4289 20.4637H2.57171C1.21072 20.4637 0.107422 19.3604 0.107422 17.9994V5.99944Z" fill="#00315C"/>
<path fill-rule="evenodd" clip-rule="evenodd" d="M12.0011 10.1797C10.9952 10.1797 10.1797 10.9952 10.1797 12.0011C10.1797 13.0071 10.9952 13.8225 12.0011 13.8225C13.0071 13.8225 13.8225 13.0071 13.8225 12.0011C13.8225 10.9952 13.0071 10.1797 12.0011 10.1797ZM8.67969 12.0011C8.67969 10.1667 10.1667 8.67969 12.0011 8.67969C13.8355 8.67969 15.3225 10.1667 15.3225 12.0011C15.3225 13.8355 13.8355 15.3225 12.0011 15.3225C10.1667 15.3225 8.67969 13.8355 8.67969 12.0011Z" fill="#00315C"/>
<path fill-rule="evenodd" clip-rule="evenodd" d="M4.39258 8.57031C4.39258 8.1561 4.72836 7.82031 5.14258 7.82031H5.99972C6.41393 7.82031 6.74972 8.1561 6.74972 8.57031C6.74972 8.98453 6.41393 9.32031 5.99972 9.32031H5.14258C4.72836 9.32031 4.39258 8.98453 4.39258 8.57031ZM17.2497 15.4275C17.2497 15.0132 17.5855 14.6775 17.9997 14.6775H18.8569C19.2711 14.6775 19.6069 15.0132 19.6069 15.4275C19.6069 15.8417 19.2711 16.1775 18.8569 16.1775H17.9997C17.5855 16.1775 17.2497 15.8417 17.2497 15.4275Z" fill="#00315C"/>
</svg>
