<svg width="80" height="80" viewBox="0 0 80 80" fill="none" xmlns="http://www.w3.org/2000/svg">
<g clip-path="url(#clip0_1035_4665)">
<path d="M51.0356 28.9844C50.0008 28.9844 49.1621 29.8231 49.1621 30.8579V66.2676C49.1621 67.3017 50.0008 68.1412 51.0356 68.1412C52.0705 68.1412 52.9092 67.3017 52.9092 66.2676V30.8579C52.9092 29.8231 52.0705 28.9844 51.0356 28.9844Z" fill="#FC4337"/>
<path d="M28.9263 28.9844C27.8914 28.9844 27.0527 29.8231 27.0527 30.8579V66.2676C27.0527 67.3017 27.8914 68.1412 28.9263 68.1412C29.9611 68.1412 30.7998 67.3017 30.7998 66.2676V30.8579C30.7998 29.8231 29.9611 28.9844 28.9263 28.9844Z" fill="#FC4337"/>
<path d="M12.8153 23.8168V69.9766C12.8153 72.7049 13.8157 75.2671 15.5634 77.1055C17.303 78.9491 19.7239 79.9956 22.2576 80H57.7054C60.2397 79.9956 62.6607 78.9491 64.3996 77.1055C66.1472 75.2671 67.1477 72.7049 67.1477 69.9766V23.8168C70.6217 22.8946 72.8729 19.5384 72.4082 15.9736C71.9427 12.4095 68.9063 9.74334 65.3115 9.74261H55.7191V7.40069C55.7301 5.43129 54.9514 3.54019 53.5572 2.14895C52.1631 0.758441 50.269 -0.0158545 48.2996 0.000246167H31.6633C29.6939 -0.0158545 27.7999 0.758441 26.4057 2.14895C25.0115 3.54019 24.2328 5.43129 24.2438 7.40069V9.74261H14.6515C11.0566 9.74334 8.02021 12.4095 7.55475 15.9736C7.09003 19.5384 9.34119 22.8946 12.8153 23.8168ZM57.7054 76.2529H22.2576C19.0543 76.2529 16.5623 73.5012 16.5623 69.9766V23.9814H63.4006V69.9766C63.4006 73.5012 60.9087 76.2529 57.7054 76.2529ZM27.9909 7.40069C27.9784 6.42514 28.3619 5.48618 29.0542 4.79751C29.7458 4.10884 30.687 3.73047 31.6633 3.74731H48.2996C49.2759 3.73047 50.2171 4.10884 50.9087 4.79751C51.601 5.48545 51.9845 6.42514 51.9721 7.40069V9.74261H27.9909V7.40069ZM14.6515 13.4897H65.3115C67.174 13.4897 68.6838 14.9995 68.6838 16.862C68.6838 18.7246 67.174 20.2344 65.3115 20.2344H14.6515C12.7889 20.2344 11.2791 18.7246 11.2791 16.862C11.2791 14.9995 12.7889 13.4897 14.6515 13.4897Z" fill="#FC4337"/>
<path d="M39.981 28.9844C38.9461 28.9844 38.1074 29.8231 38.1074 30.8579V66.2676C38.1074 67.3017 38.9461 68.1412 39.981 68.1412C41.0158 68.1412 41.8545 67.3017 41.8545 66.2676V30.8579C41.8545 29.8231 41.0158 28.9844 39.981 28.9844Z" fill="#FC4337"/>
</g>
<defs>
<clipPath id="clip0_1035_4665">
<rect width="80" height="80" fill="white"/>
</clipPath>
</defs>
</svg>
