<svg width="20" height="20" viewBox="0 0 20 20" fill="none" xmlns="http://www.w3.org/2000/svg">
<path fill-rule="evenodd" clip-rule="evenodd" d="M2.58903 4.62835C2.72684 4.3558 3.01026 4.16667 3.33358 4.16667H16.6669C16.9902 4.16667 17.2736 4.35579 17.4115 4.62834L10.0002 9.81619L2.58903 4.62835ZM0.833633 4.98423C0.833469 4.99331 0.833452 5.00238 0.833584 5.01144V15C0.833584 16.3769 1.95668 17.5 3.33358 17.5H16.6669C18.0438 17.5 19.1669 16.3769 19.1669 15V5.00921M17.5002 6.60061V15C17.5002 15.4564 17.1233 15.8333 16.6669 15.8333H3.33358C2.87715 15.8333 2.50025 15.4564 2.50025 15V6.60063L9.52235 11.5161C9.80928 11.717 10.1912 11.717 10.4781 11.5161L17.5002 6.60061ZM19.1669 4.98695C19.1598 3.61601 18.0395 2.5 16.6669 2.5H3.33358C1.96194 2.5 0.842167 3.61453 0.833633 4.98423" fill="#707070"/>
</svg>
