<svg width="80" height="80" viewBox="0 0 80 80" fill="none" xmlns="http://www.w3.org/2000/svg">
<g clip-path="url(#clip0_1035_4632)">
<path d="M68.3016 11.7102C52.7036 -3.88777 27.3157 -3.88777 11.7178 11.7102C4.16207 19.2689 0 29.3163 0 40.002C0 50.6878 4.16207 60.7352 11.7178 68.2909C19.5183 76.0914 29.764 79.9901 40.0096 79.9901C50.2552 79.9901 60.5011 76.0914 68.3014 68.2909C83.8994 52.6929 83.8994 27.3111 68.3016 11.7102ZM63.9194 63.9087C50.7356 77.0924 29.2836 77.0924 16.0998 63.9087C9.71572 57.5245 6.19818 49.0329 6.19818 40.002C6.19818 30.9712 9.71572 22.4795 16.0998 16.0923C29.2836 2.90854 50.7356 2.91167 63.9194 16.0923C77.1 29.276 77.1 50.7281 63.9194 63.9087Z" fill="#FC4337"/>
<path d="M53.3637 48.5689L44.5901 39.8077L53.3637 31.0465C54.5723 29.8379 54.5724 27.8762 53.3669 26.6643C52.1551 25.4494 50.1934 25.4525 48.9817 26.6611L40.2019 35.4286L31.4221 26.6611C30.2104 25.4525 28.2487 25.4494 27.0369 26.6643C25.8283 27.876 25.8283 29.8377 27.04 31.0465L35.8137 39.8077L27.04 48.5689C25.8283 49.7775 25.8283 51.7392 27.0369 52.9511C27.6413 53.5584 28.4377 53.8591 29.2312 53.8591C30.0246 53.8591 30.8179 53.5553 31.4223 52.9541L40.2021 44.1866L48.9818 52.9541C49.5862 53.5584 50.3795 53.8591 51.1729 53.8591C51.9664 53.8591 52.7628 53.5553 53.3672 52.9511C54.5755 51.7392 54.5755 49.7775 53.3637 48.5689Z" fill="#FC4337"/>
</g>
<defs>
<clipPath id="clip0_1035_4632">
<rect width="80" height="80" fill="white"/>
</clipPath>
</defs>
</svg>
