<svg width="20" height="21" viewBox="0 0 20 21" fill="none" xmlns="http://www.w3.org/2000/svg">
<path fill-rule="evenodd" clip-rule="evenodd" d="M3.23223 2.06622C3.70107 1.59738 4.33696 1.33398 5 1.33398H11.6667C11.8877 1.33398 12.0996 1.42178 12.2559 1.57806L17.2559 6.57806C17.4122 6.73434 17.5 6.9463 17.5 7.16732V17.1673C17.5 17.8304 17.2366 18.4662 16.7678 18.9351C16.2989 19.4039 15.663 19.6673 15 19.6673H5C4.33696 19.6673 3.70107 19.4039 3.23223 18.9351C2.76339 18.4662 2.5 17.8304 2.5 17.1673V3.83398C2.5 3.17094 2.76339 2.53506 3.23223 2.06622ZM5 3.00065C4.77899 3.00065 4.56702 3.08845 4.41074 3.24473C4.25446 3.40101 4.16667 3.61297 4.16667 3.83398V17.1673C4.16667 17.3883 4.25446 17.6003 4.41074 17.7566C4.56702 17.9129 4.77899 18.0006 5 18.0006H15C15.221 18.0006 15.433 17.9129 15.5893 17.7566C15.7455 17.6003 15.8333 17.3883 15.8333 17.1673V7.51249L11.3215 3.00065H5Z" fill="#00315C"/>
<path fill-rule="evenodd" clip-rule="evenodd" d="M11.6663 1.33398C12.1266 1.33398 12.4997 1.70708 12.4997 2.16732V6.33398H16.6663C17.1266 6.33398 17.4997 6.70708 17.4997 7.16732C17.4997 7.62755 17.1266 8.00065 16.6663 8.00065H11.6663C11.2061 8.00065 10.833 7.62755 10.833 7.16732V2.16732C10.833 1.70708 11.2061 1.33398 11.6663 1.33398Z" fill="#00315C"/>
<path fill-rule="evenodd" clip-rule="evenodd" d="M5.83301 11.3333C5.83301 10.8731 6.2061 10.5 6.66634 10.5H13.333C13.7932 10.5 14.1663 10.8731 14.1663 11.3333C14.1663 11.7936 13.7932 12.1667 13.333 12.1667H6.66634C6.2061 12.1667 5.83301 11.7936 5.83301 11.3333Z" fill="#00315C"/>
<path fill-rule="evenodd" clip-rule="evenodd" d="M5.83301 14.6673C5.83301 14.2071 6.2061 13.834 6.66634 13.834H13.333C13.7932 13.834 14.1663 14.2071 14.1663 14.6673C14.1663 15.1276 13.7932 15.5007 13.333 15.5007H6.66634C6.2061 15.5007 5.83301 15.1276 5.83301 14.6673Z" fill="#00315C"/>
<path fill-rule="evenodd" clip-rule="evenodd" d="M5.83301 7.99935C5.83301 7.53911 6.2061 7.16602 6.66634 7.16602H8.33301C8.79325 7.16602 9.16634 7.53911 9.16634 7.99935C9.16634 8.45959 8.79325 8.83268 8.33301 8.83268H6.66634C6.2061 8.83268 5.83301 8.45959 5.83301 7.99935Z" fill="#00315C"/>
</svg>
