<svg width="81" height="12" viewBox="0 0 81 12" fill="none" xmlns="http://www.w3.org/2000/svg">
<path d="M12.4476 4.31975C12.3938 4.17153 12.2954 4.0432 12.1655 3.9521C12.0357 3.861 11.8807 3.81152 11.7216 3.81034H8.58567C8.53275 3.81032 8.48113 3.79417 8.43783 3.76409C8.39453 3.73401 8.36164 3.69147 8.34365 3.64224L7.22112 0.483934C7.16262 0.340879 7.06225 0.218379 6.93289 0.132152C6.80352 0.0459256 6.65106 -9.34801e-05 6.49507 1.42568e-07C6.33642 0.000751282 6.1819 0.0501415 6.0528 0.14137C5.9237 0.232599 5.82635 0.361178 5.77418 0.509404L4.6465 3.65243C4.62851 3.70166 4.59562 3.7442 4.55232 3.77428C4.50901 3.80436 4.45739 3.82051 4.40448 3.82053H1.26859C1.10924 3.82098 0.953925 3.87017 0.823941 3.96137C0.693958 4.05257 0.59567 4.1813 0.542552 4.32994C0.491471 4.47686 0.486254 4.63559 0.527579 4.78549C0.568903 4.93539 0.654858 5.06952 0.774268 5.17045L3.44157 7.36089C3.48165 7.39325 3.51095 7.4368 3.52564 7.48586C3.54034 7.53493 3.53975 7.58724 3.52396 7.63597L2.40143 10.9624C2.34856 11.1164 2.34675 11.2831 2.39627 11.4382C2.44579 11.5933 2.54404 11.7287 2.67674 11.8248C2.80943 11.9208 2.96965 11.9724 3.13407 11.9722C3.29848 11.9719 3.45853 11.9197 3.5909 11.8233L6.3406 9.82641C6.38436 9.79376 6.43769 9.7761 6.4925 9.7761C6.54731 9.7761 6.60064 9.79376 6.6444 9.82641L9.39925 11.8233C9.5306 11.9314 9.69449 11.9934 9.86526 11.9995C10.036 12.0056 10.204 11.9556 10.343 11.8571C10.4819 11.7587 10.5839 11.6175 10.633 11.4556C10.6822 11.2937 10.6756 11.1202 10.6145 10.9624L9.49193 7.63597C9.47614 7.58724 9.47556 7.53493 9.49025 7.48586C9.50495 7.4368 9.53424 7.39325 9.57432 7.36089L12.2468 5.16536C12.3625 5.06084 12.4436 4.92417 12.4794 4.77328C12.5152 4.62239 12.5041 4.4643 12.4476 4.31975Z" fill="#FFC515"/>
<path d="M29.4476 4.31975C29.3938 4.17153 29.2954 4.0432 29.1655 3.9521C29.0357 3.861 28.8807 3.81152 28.7216 3.81034H25.5857C25.5328 3.81032 25.4811 3.79417 25.4378 3.76409C25.3945 3.73401 25.3616 3.69147 25.3437 3.64224L24.2211 0.483934C24.1626 0.340879 24.0623 0.218379 23.9329 0.132152C23.8035 0.0459256 23.6511 -9.34801e-05 23.4951 1.42568e-07C23.3364 0.000751282 23.1819 0.0501415 23.0528 0.14137C22.9237 0.232599 22.8264 0.361178 22.7742 0.509404L21.6465 3.65243C21.6285 3.70166 21.5956 3.7442 21.5523 3.77428C21.509 3.80436 21.4574 3.82051 21.4045 3.82053H18.2686C18.1092 3.82098 17.9539 3.87017 17.8239 3.96137C17.694 4.05257 17.5957 4.1813 17.5426 4.32994C17.4915 4.47686 17.4863 4.63559 17.5276 4.78549C17.5689 4.93539 17.6549 5.06952 17.7743 5.17045L20.4416 7.36089C20.4817 7.39325 20.5109 7.4368 20.5256 7.48586C20.5403 7.53493 20.5398 7.58724 20.524 7.63597L19.4014 10.9624C19.3486 11.1164 19.3468 11.2831 19.3963 11.4382C19.4458 11.5933 19.544 11.7287 19.6767 11.8248C19.8094 11.9208 19.9696 11.9724 20.1341 11.9722C20.2985 11.9719 20.4585 11.9197 20.5909 11.8233L23.3406 9.82641C23.3844 9.79376 23.4377 9.7761 23.4925 9.7761C23.5473 9.7761 23.6006 9.79376 23.6444 9.82641L26.3992 11.8233C26.5306 11.9314 26.6945 11.9934 26.8653 11.9995C27.036 12.0056 27.204 11.9556 27.343 11.8571C27.4819 11.7587 27.5839 11.6175 27.633 11.4556C27.6822 11.2937 27.6756 11.1202 27.6145 10.9624L26.4919 7.63597C26.4761 7.58724 26.4756 7.53493 26.4903 7.48586C26.5049 7.4368 26.5342 7.39325 26.5743 7.36089L29.2468 5.16536C29.3625 5.06084 29.4436 4.92417 29.4794 4.77328C29.5152 4.62239 29.5041 4.4643 29.4476 4.31975Z" fill="#FFC515"/>
<path d="M46.4476 4.31975C46.3938 4.17153 46.2954 4.0432 46.1655 3.9521C46.0357 3.861 45.8807 3.81152 45.7216 3.81034H42.5857C42.5328 3.81032 42.4811 3.79417 42.4378 3.76409C42.3945 3.73401 42.3616 3.69147 42.3437 3.64224L41.2211 0.483934C41.1626 0.340879 41.0623 0.218379 40.9329 0.132152C40.8035 0.0459256 40.6511 -9.34801e-05 40.4951 1.42568e-07C40.3364 0.000751282 40.1819 0.0501415 40.0528 0.14137C39.9237 0.232599 39.8264 0.361178 39.7742 0.509404L38.6465 3.65243C38.6285 3.70166 38.5956 3.7442 38.5523 3.77428C38.509 3.80436 38.4574 3.82051 38.4045 3.82053H35.2686C35.1092 3.82098 34.9539 3.87017 34.8239 3.96137C34.694 4.05257 34.5957 4.1813 34.5426 4.32994C34.4915 4.47686 34.4863 4.63559 34.5276 4.78549C34.5689 4.93539 34.6549 5.06952 34.7743 5.17045L37.4416 7.36089C37.4817 7.39325 37.5109 7.4368 37.5256 7.48586C37.5403 7.53493 37.5398 7.58724 37.524 7.63597L36.4014 10.9624C36.3486 11.1164 36.3468 11.2831 36.3963 11.4382C36.4458 11.5933 36.544 11.7287 36.6767 11.8248C36.8094 11.9208 36.9696 11.9724 37.1341 11.9722C37.2985 11.9719 37.4585 11.9197 37.5909 11.8233L40.3406 9.82641C40.3844 9.79376 40.4377 9.7761 40.4925 9.7761C40.5473 9.7761 40.6006 9.79376 40.6444 9.82641L43.3992 11.8233C43.5306 11.9314 43.6945 11.9934 43.8653 11.9995C44.036 12.0056 44.204 11.9556 44.343 11.8571C44.4819 11.7587 44.5839 11.6175 44.633 11.4556C44.6822 11.2937 44.6756 11.1202 44.6145 10.9624L43.4919 7.63597C43.4761 7.58724 43.4756 7.53493 43.4903 7.48586C43.5049 7.4368 43.5342 7.39325 43.5743 7.36089L46.2468 5.16536C46.3625 5.06084 46.4436 4.92417 46.4794 4.77328C46.5152 4.62239 46.5041 4.4643 46.4476 4.31975Z" fill="#FFC515"/>
<path d="M63.4476 4.31975C63.3938 4.17153 63.2954 4.0432 63.1655 3.9521C63.0357 3.861 62.8807 3.81152 62.7216 3.81034H59.5857C59.5328 3.81032 59.4811 3.79417 59.4378 3.76409C59.3945 3.73401 59.3616 3.69147 59.3437 3.64224L58.2211 0.483934C58.1626 0.340879 58.0623 0.218379 57.9329 0.132152C57.8035 0.0459256 57.6511 -9.34801e-05 57.4951 1.42568e-07C57.3364 0.000751282 57.1819 0.0501415 57.0528 0.14137C56.9237 0.232599 56.8264 0.361178 56.7742 0.509404L55.6465 3.65243C55.6285 3.70166 55.5956 3.7442 55.5523 3.77428C55.509 3.80436 55.4574 3.82051 55.4045 3.82053H52.2686C52.1092 3.82098 51.9539 3.87017 51.8239 3.96137C51.694 4.05257 51.5957 4.1813 51.5426 4.32994C51.4915 4.47686 51.4863 4.63559 51.5276 4.78549C51.5689 4.93539 51.6549 5.06952 51.7743 5.17045L54.4416 7.36089C54.4817 7.39325 54.5109 7.4368 54.5256 7.48586C54.5403 7.53493 54.5398 7.58724 54.524 7.63597L53.4014 10.9624C53.3486 11.1164 53.3468 11.2831 53.3963 11.4382C53.4458 11.5933 53.544 11.7287 53.6767 11.8248C53.8094 11.9208 53.9696 11.9724 54.1341 11.9722C54.2985 11.9719 54.4585 11.9197 54.5909 11.8233L57.3406 9.82641C57.3844 9.79376 57.4377 9.7761 57.4925 9.7761C57.5473 9.7761 57.6006 9.79376 57.6444 9.82641L60.3992 11.8233C60.5306 11.9314 60.6945 11.9934 60.8653 11.9995C61.036 12.0056 61.204 11.9556 61.343 11.8571C61.4819 11.7587 61.5839 11.6175 61.633 11.4556C61.6822 11.2937 61.6756 11.1202 61.6145 10.9624L60.4919 7.63597C60.4761 7.58724 60.4756 7.53493 60.4903 7.48586C60.5049 7.4368 60.5342 7.39325 60.5743 7.36089L63.2468 5.16536C63.3625 5.06084 63.4436 4.92417 63.4794 4.77328C63.5152 4.62239 63.5041 4.4643 63.4476 4.31975Z" fill="#FFC515"/>
<path d="M80.4476 4.31975C80.3938 4.17153 80.2954 4.0432 80.1655 3.9521C80.0357 3.861 79.8807 3.81152 79.7216 3.81034H76.5857C76.5328 3.81032 76.4811 3.79417 76.4378 3.76409C76.3945 3.73401 76.3616 3.69147 76.3437 3.64224L75.2211 0.483934C75.1626 0.340879 75.0623 0.218379 74.9329 0.132152C74.8035 0.0459256 74.6511 -9.34801e-05 74.4951 1.42568e-07C74.3364 0.000751282 74.1819 0.0501415 74.0528 0.14137C73.9237 0.232599 73.8264 0.361178 73.7742 0.509404L72.6465 3.65243C72.6285 3.70166 72.5956 3.7442 72.5523 3.77428C72.509 3.80436 72.4574 3.82051 72.4045 3.82053H69.2686C69.1092 3.82098 68.9539 3.87017 68.8239 3.96137C68.694 4.05257 68.5957 4.1813 68.5426 4.32994C68.4915 4.47686 68.4863 4.63559 68.5276 4.78549C68.5689 4.93539 68.6549 5.06952 68.7743 5.17045L71.4416 7.36089C71.4817 7.39325 71.5109 7.4368 71.5256 7.48586C71.5403 7.53493 71.5398 7.58724 71.524 7.63597L70.4014 10.9624C70.3486 11.1164 70.3468 11.2831 70.3963 11.4382C70.4458 11.5933 70.544 11.7287 70.6767 11.8248C70.8094 11.9208 70.9696 11.9724 71.1341 11.9722C71.2985 11.9719 71.4585 11.9197 71.5909 11.8233L74.3406 9.82641C74.3844 9.79376 74.4377 9.7761 74.4925 9.7761C74.5473 9.7761 74.6006 9.79376 74.6444 9.82641L77.3992 11.8233C77.5306 11.9314 77.6945 11.9934 77.8653 11.9995C78.036 12.0056 78.204 11.9556 78.343 11.8571C78.4819 11.7587 78.5839 11.6175 78.633 11.4556C78.6822 11.2937 78.6756 11.1202 78.6145 10.9624L77.4919 7.63597C77.4761 7.58724 77.4756 7.53493 77.4903 7.48586C77.5049 7.4368 77.5342 7.39325 77.5743 7.36089L80.2468 5.16536C80.3625 5.06084 80.4436 4.92417 80.4794 4.77328C80.5152 4.62239 80.5041 4.4643 80.4476 4.31975Z" fill="#FFC515"/>
</svg>
