<svg width="18" height="18" viewBox="0 0 18 18" fill="none" xmlns="http://www.w3.org/2000/svg">
<path d="M4.7625 11.5125L3.1875 9.9C3.925 9.1625 4.79075 8.57825 5.78475 8.14725C6.77875 7.71625 7.8505 7.5005 9 7.5C10.15 7.5 11.222 7.71875 12.216 8.15625C13.21 8.59375 14.0755 9.1875 14.8125 9.9375L13.2375 11.5125C12.6875 10.9625 12.05 10.5312 11.325 10.2188C10.6 9.90625 9.825 9.75 9 9.75C8.175 9.75 7.4 9.90625 6.675 10.2188C5.95 10.5312 5.3125 10.9625 4.7625 11.5125ZM1.575 8.325L0 6.75C1.15 5.575 2.49375 4.65625 4.03125 3.99375C5.56875 3.33125 7.225 3 9 3C10.775 3 12.4312 3.33125 13.9688 3.99375C15.5063 4.65625 16.85 5.575 18 6.75L16.425 8.325C15.4625 7.3625 14.3468 6.60925 13.0778 6.06525C11.8088 5.52125 10.4495 5.2495 9 5.25C7.55 5.25 6.1905 5.522 4.9215 6.066C3.6525 6.61 2.537 7.363 1.575 8.325ZM9 15.75L11.6437 13.0875C11.3062 12.75 10.9125 12.4842 10.4625 12.2902C10.0125 12.0962 9.525 11.9995 9 12C8.475 12 7.9875 12.097 7.5375 12.291C7.0875 12.485 6.69375 12.7505 6.35625 13.0875L9 15.75Z" fill="#707070"/>
</svg>
