<svg width="21" height="21" viewBox="0 0 21 21" fill="none" xmlns="http://www.w3.org/2000/svg">
    <g clip-path="url(#clip0_1780_3819)">
        <path fill-rule="evenodd" clip-rule="evenodd"
            d="M12.3848 13.4453C11.037 14.5222 9.32796 15.0422 7.60873 14.8984C5.8895 14.7546 4.29059 13.9579 3.14039 12.6721C1.99019 11.3862 1.37601 9.7087 1.424 7.98413C1.47199 6.25957 2.17849 4.61883 3.39842 3.39891C4.61834 2.17898 6.25908 1.47248 7.98364 1.42449C9.70821 1.3765 11.3857 1.99068 12.6716 3.14088C13.9574 4.29108 14.7541 5.88999 14.8979 7.60922C15.0417 9.32845 14.5218 11.0375 13.4448 12.3853L18.6008 17.5403C18.6745 17.609 18.7336 17.6918 18.7746 17.7838C18.8156 17.8758 18.8377 17.9751 18.8394 18.0758C18.8412 18.1765 18.8227 18.2765 18.785 18.3699C18.7472 18.4633 18.6911 18.5482 18.6199 18.6194C18.5487 18.6906 18.4638 18.7467 18.3704 18.7845C18.2771 18.8222 18.177 18.8407 18.0763 18.8389C17.9756 18.8371 17.8763 18.8151 17.7843 18.7741C17.6923 18.7331 17.6095 18.674 17.5408 18.6003L12.3848 13.4453ZM4.45884 11.8833C3.72488 11.1493 3.225 10.2142 3.02236 9.1961C2.81972 8.17805 2.92342 7.12277 3.32036 6.16363C3.71729 5.20449 4.38965 4.38455 5.25246 3.80743C6.11526 3.23031 7.12979 2.92191 8.16781 2.92121C9.20584 2.92052 10.2208 3.22755 11.0844 3.80351C11.9479 4.37947 12.6214 5.1985 13.0196 6.1571C13.4179 7.11571 13.523 8.17084 13.3217 9.18917C13.1204 10.2075 12.6218 11.1433 11.8888 11.8783L11.8838 11.8833L11.8788 11.8873C10.8939 12.87 9.55927 13.4215 8.16801 13.4207C6.77676 13.42 5.44269 12.867 4.45884 11.8833Z"
            fill="white" />
    </g>
    <defs>
        <clipPath id="clip0_1780_3819">
            <rect width="20.911" height="21" fill="white" />
        </clipPath>
    </defs>
</svg>