<svg width="24" height="24" viewBox="0 0 24 24" fill="none" xmlns="http://www.w3.org/2000/svg">
<path fill-rule="evenodd" clip-rule="evenodd" d="M2.57171 3.75C2.03915 3.75 1.60742 4.18173 1.60742 4.71429V15C1.60742 15.5326 2.03915 15.9643 2.57171 15.9643H17.1431C17.6757 15.9643 18.1074 15.5326 18.1074 15V4.71429C18.1074 4.18173 17.6757 3.75 17.1431 3.75H2.57171ZM0.107422 4.71429C0.107422 3.3533 1.21072 2.25 2.57171 2.25H17.1431C18.5041 2.25 19.6074 3.3533 19.6074 4.71429V15C19.6074 16.361 18.5041 17.4643 17.1431 17.4643H2.57171C1.21072 17.4643 0.107422 16.361 0.107422 15V4.71429Z" fill="#00315C"/>
<path fill-rule="evenodd" clip-rule="evenodd" d="M9.85658 8.03516C8.85064 8.03516 8.03516 8.85064 8.03516 9.85658C8.03516 10.8625 8.85064 11.678 9.85658 11.678C10.8625 11.678 11.678 10.8625 11.678 9.85658C11.678 8.85064 10.8625 8.03516 9.85658 8.03516ZM6.53516 9.85658C6.53516 8.02221 8.02221 6.53516 9.85658 6.53516C11.691 6.53516 13.178 8.02221 13.178 9.85658C13.178 11.691 11.691 13.178 9.85658 13.178C8.02221 13.178 6.53516 11.691 6.53516 9.85658Z" fill="#00315C"/>
<path fill-rule="evenodd" clip-rule="evenodd" d="M23.1429 9.96484C23.5571 9.96484 23.8929 10.3006 23.8929 10.7148V19.2863C23.8929 19.9398 23.6332 20.5666 23.1711 21.0288C22.7089 21.4909 22.0821 21.7506 21.4286 21.7506H6C5.58579 21.7506 5.25 21.4148 5.25 21.0006C5.25 20.5863 5.58579 20.2506 6 20.2506H21.4286C21.6843 20.2506 21.9296 20.149 22.1104 19.9681C22.2913 19.7873 22.3929 19.542 22.3929 19.2863V10.7148C22.3929 10.3006 22.7286 9.96484 23.1429 9.96484Z" fill="#00315C"/>
</svg>
