<svg width="20" height="20" viewBox="0 0 20 20" fill="none" xmlns="http://www.w3.org/2000/svg">
<g clip-path="url(#clip0_1862_851)">
<path d="M15.8327 0.833984L19.166 4.16732M19.166 4.16732L15.8327 7.50065M19.166 4.16732H12.4994M18.3327 14.1007V16.6007C18.3337 16.8327 18.2861 17.0625 18.1931 17.2751C18.1002 17.4878 17.9638 17.6786 17.7928 17.8355C17.6218 17.9924 17.4199 18.1119 17.2 18.1862C16.9801 18.2606 16.7472 18.2882 16.516 18.2673C13.9517 17.9887 11.4885 17.1124 9.32437 15.709C7.3109 14.4295 5.60382 12.7225 4.32437 10.709C2.91602 8.53499 2.03958 6.05981 1.76604 3.48398C1.74522 3.25354 1.7726 3.02128 1.84646 2.802C1.92031 2.58272 2.03902 2.38123 2.19501 2.21034C2.35101 2.03945 2.54088 1.90291 2.75253 1.80942C2.96419 1.71593 3.19299 1.66754 3.42437 1.66732H5.92438C6.3288 1.66334 6.72087 1.80655 7.02751 2.07026C7.33415 2.33397 7.53444 2.70019 7.59104 3.10065C7.69656 3.90071 7.89225 4.68626 8.17438 5.44232C8.28649 5.74059 8.31076 6.06475 8.2443 6.37638C8.17783 6.68802 8.02343 6.97408 7.79937 7.20065L6.74104 8.25898C7.92734 10.3453 9.65475 12.0727 11.741 13.259L12.7994 12.2007C13.0259 11.9766 13.312 11.8222 13.6236 11.7557C13.9353 11.6893 14.2594 11.7135 14.5577 11.8257C15.3138 12.1078 16.0993 12.3035 16.8994 12.409C17.3042 12.4661 17.6739 12.67 17.9382 12.9819C18.2024 13.2938 18.3428 13.692 18.3327 14.1007Z" stroke="#707070" stroke-width="2" stroke-linecap="round" stroke-linejoin="round"/>
</g>
<defs>
<clipPath id="clip0_1862_851">
<rect width="20" height="20" fill="white"/>
</clipPath>
</defs>
</svg>
