<svg width="24" height="24" viewBox="0 0 24 24" fill="none" xmlns="http://www.w3.org/2000/svg">
<path fill-rule="evenodd" clip-rule="evenodd" d="M1.4025 1.4025C1.66022 1.14478 2.00975 1 2.37422 1H7.87107C8.23553 1 8.58507 1.14478 8.84278 1.4025C9.1005 1.66021 9.24528 2.00975 9.24528 2.37421V7.87106C9.24528 8.23552 9.1005 8.58506 8.84278 8.84278C8.58507 9.10049 8.23553 9.24527 7.87107 9.24527H2.37422C2.00975 9.24527 1.66022 9.10049 1.4025 8.84278C1.14479 8.58506 1 8.23552 1 7.87106V2.37421C1 2.00975 1.14479 1.66021 1.4025 1.4025ZM7.87107 2.37421H2.37422V7.87106H7.87107L7.87107 2.37421ZM11.9937 1C12.3732 1 12.6808 1.30763 12.6808 1.68711V5.12264C12.6808 5.50212 12.3732 5.80974 11.9937 5.80974C11.6142 5.80974 11.3066 5.50212 11.3066 5.12264V1.68711C11.3066 1.30763 11.6142 1 11.9937 1ZM15.1446 1.4025C15.4023 1.14478 15.7519 1 16.1163 1H21.6132C21.9777 1 22.3272 1.14478 22.5849 1.4025C22.8426 1.66021 22.9874 2.00975 22.9874 2.37421V7.87106C22.9874 8.23552 22.8426 8.58506 22.5849 8.84278C22.3272 9.10049 21.9777 9.24527 21.6132 9.24527H16.1163C15.7519 9.24527 15.4023 9.10049 15.1446 8.84278C14.8869 8.58506 14.7421 8.23552 14.7421 7.87106V2.37421C14.7421 2.00975 14.8869 1.66021 15.1446 1.4025ZM21.6132 2.37421H16.1163L16.1163 7.87106H21.6132V2.37421ZM5.59629 4.61422C5.87708 4.86949 5.89778 5.30405 5.64251 5.58484L5.63106 5.59743C5.37579 5.87822 4.94123 5.89892 4.66044 5.64365C4.37965 5.38838 4.35896 4.95382 4.61423 4.67303L4.62568 4.66044C4.88094 4.37965 5.3155 4.35896 5.59629 4.61422ZM19.3384 4.61422C19.6192 4.86949 19.6399 5.30405 19.3846 5.58484L19.3732 5.59743C19.1179 5.87822 18.6834 5.89892 18.4026 5.64365C18.1218 5.38838 18.1011 4.95382 18.3564 4.67303L18.3678 4.66044C18.6231 4.37965 19.0576 4.35896 19.3384 4.61422ZM12.4674 8.04976C12.7482 8.30503 12.7688 8.73959 12.5136 9.02038L12.5021 9.03298C12.2468 9.31376 11.8123 9.33444 11.5315 9.07917C11.2507 8.8239 11.23 8.38934 11.4853 8.10855L11.4968 8.09596C11.752 7.81517 12.1866 7.79449 12.4674 8.04976ZM2.16077 11.4853C2.44156 11.7406 2.46224 12.1751 2.20697 12.4559L2.19552 12.4685C1.94025 12.7493 1.50569 12.77 1.22491 12.5147C0.944119 12.2594 0.923431 11.8249 1.1787 11.5441L1.19015 11.5315C1.44542 11.2507 1.87998 11.23 2.16077 11.4853ZM12.4674 11.4853C12.7482 11.7406 12.7688 12.1751 12.5136 12.4559L12.5021 12.4685C12.2468 12.7493 11.8123 12.77 11.5315 12.5147C11.2507 12.2594 11.23 11.8249 11.4853 11.5441L11.4968 11.5315C11.752 11.2507 12.1866 11.23 12.4674 11.4853ZM22.774 11.4853C23.0547 11.7406 23.0754 12.1751 22.8202 12.4559L22.8087 12.4685C22.5534 12.7493 22.1189 12.77 21.8381 12.5147C21.5573 12.2594 21.5366 11.8249 21.7919 11.5441L21.8033 11.5315C22.0586 11.2507 22.4932 11.23 22.774 11.4853ZM4.43554 11.9937C4.43554 11.6142 4.74316 11.3066 5.12264 11.3066H8.55817C8.93765 11.3066 9.24528 11.6142 9.24528 11.9937C9.24528 12.3732 8.93765 12.6808 8.55817 12.6808H5.12264C4.74316 12.6808 4.43554 12.3732 4.43554 11.9937ZM15.4292 11.3066C15.8087 11.3066 16.1163 11.6142 16.1163 11.9937V15.4292C16.1163 15.8087 15.8087 16.1163 15.4292 16.1163C15.0498 16.1163 14.7421 15.8087 14.7421 15.4292V11.9937C14.7421 11.6142 15.0498 11.3066 15.4292 11.3066ZM18.8648 11.3066C19.2442 11.3066 19.5519 11.6142 19.5519 11.9937V15.4292C19.5519 15.8087 19.2442 16.1163 18.8648 16.1163C18.4853 16.1163 18.1777 15.8087 18.1777 15.4292V11.9937C18.1777 11.6142 18.4853 11.3066 18.8648 11.3066ZM12.4674 14.9208C12.7482 15.1761 12.7688 15.6107 12.5136 15.8914L12.5021 15.904C12.2468 16.1848 11.8123 16.2055 11.5315 15.9502C11.2507 15.695 11.23 15.2604 11.4853 14.9796L11.4968 14.967C11.752 14.6862 12.1866 14.6656 12.4674 14.9208ZM22.774 14.9208C23.0547 15.1761 23.0754 15.6107 22.8202 15.8914L22.8087 15.904C22.5534 16.1848 22.1189 16.2055 21.8381 15.9502C21.5573 15.695 21.5366 15.2604 21.7919 14.9796L21.8033 14.967C22.0586 14.6862 22.4932 14.6656 22.774 14.9208ZM1.4025 15.1446C1.66022 14.8869 2.00975 14.7421 2.37422 14.7421H7.87107C8.23553 14.7421 8.58507 14.8869 8.84278 15.1446C9.1005 15.4023 9.24528 15.7519 9.24528 16.1163V21.6132C9.24528 21.9776 9.1005 22.3272 8.84278 22.5849C8.58507 22.8426 8.23553 22.9874 7.87107 22.9874H2.37422C2.00975 22.9874 1.66022 22.8426 1.4025 22.5849C1.14479 22.3272 1 21.9776 1 21.6132V16.1163C1 15.7519 1.14479 15.4023 1.4025 15.1446ZM7.87107 16.1163L2.37422 16.1163V21.6132H7.87107L7.87107 16.1163ZM5.59631 18.3564C5.87709 18.6116 5.89777 19.0462 5.6425 19.327L5.63105 19.3396C5.37578 19.6204 4.94122 19.641 4.66043 19.3858C4.37965 19.1305 4.35896 18.6959 4.61424 18.4151L4.62569 18.4026C4.88096 18.1218 5.31552 18.1011 5.59631 18.3564ZM11.3066 18.8648C11.3066 18.4853 11.6142 18.1777 11.9937 18.1777H22.3003C22.6798 18.1777 22.9874 18.4853 22.9874 18.8648C22.9874 19.2442 22.6798 19.5519 22.3003 19.5519H11.9937C11.6142 19.5519 11.3066 19.2442 11.3066 18.8648ZM12.4674 21.7919C12.7482 22.0472 12.7688 22.4817 12.5136 22.7625L12.5021 22.7751C12.2468 23.0559 11.8123 23.0766 11.5315 22.8213C11.2507 22.566 11.23 22.1315 11.4853 21.8507L11.4968 21.8381C11.752 21.5573 12.1866 21.5366 12.4674 21.7919ZM15.9029 21.7919C16.1837 22.0472 16.2044 22.4817 15.9491 22.7625L15.9376 22.7751C15.6824 23.0559 15.2478 23.0766 14.967 22.8213C14.6862 22.566 14.6656 22.1315 14.9208 21.8507L14.9323 21.8381C15.1876 21.5573 15.6221 21.5366 15.9029 21.7919ZM18.1777 22.3003C18.1777 21.9208 18.4853 21.6132 18.8648 21.6132H22.3003C22.6798 21.6132 22.9874 21.9208 22.9874 22.3003C22.9874 22.6798 22.6798 22.9874 22.3003 22.9874H18.8648C18.4853 22.9874 18.1777 22.6798 18.1777 22.3003Z" fill="#00315C"/>
</svg>
