<svg width="102" height="16" viewBox="0 0 102 16" fill="none" xmlns="http://www.w3.org/2000/svg">
<g clip-path="url(#clip0_1355_6470)">
<path d="M15.8395 5.81935C15.7699 5.62537 15.6425 5.45742 15.4744 5.3382C15.3062 5.21898 15.1056 5.15422 14.8995 5.15268H10.8395C10.771 5.15265 10.7042 5.13152 10.6481 5.09215C10.5921 5.05279 10.5495 4.99711 10.5262 4.93268L9.07285 0.799349C8.99712 0.612131 8.86717 0.451812 8.69968 0.338966C8.5322 0.226119 8.33481 0.165893 8.13285 0.166016C7.92744 0.166999 7.72739 0.231637 7.56024 0.351029C7.39309 0.470422 7.26707 0.638696 7.19952 0.832682L5.73952 4.94602C5.71623 5.01044 5.67365 5.06612 5.61759 5.10549C5.56152 5.14485 5.49469 5.16599 5.42619 5.16602H1.36619C1.15987 5.1666 0.958785 5.23098 0.790497 5.35033C0.622209 5.46968 0.494956 5.63817 0.426185 5.83268C0.360052 6.02497 0.353297 6.2327 0.4068 6.42888C0.460302 6.62505 0.571587 6.8006 0.726185 6.93268L4.17952 9.79935C4.23141 9.84169 4.26933 9.89869 4.28836 9.9629C4.30739 10.0271 4.30663 10.0956 4.28619 10.1593L2.83285 14.5127C2.76441 14.7142 2.76207 14.9324 2.82617 15.1354C2.89028 15.3384 3.01749 15.5156 3.18929 15.6413C3.36109 15.767 3.56852 15.8346 3.78139 15.8342C3.99426 15.8339 4.20147 15.7656 4.37285 15.6393L7.93285 13.026C7.98952 12.9833 8.05855 12.9602 8.12952 12.9602C8.20049 12.9602 8.26952 12.9833 8.32619 13.026L11.8929 15.6393C12.0629 15.7808 12.2751 15.862 12.4962 15.87C12.7173 15.878 12.9348 15.8125 13.1147 15.6837C13.2945 15.5549 13.4266 15.37 13.4902 15.1582C13.5538 14.9463 13.5454 14.7193 13.4662 14.5127L12.0129 10.1593C11.9924 10.0956 11.9916 10.0271 12.0107 9.9629C12.0297 9.89869 12.0676 9.84169 12.1195 9.79935L15.5795 6.92602C15.7293 6.78923 15.8343 6.61037 15.8807 6.4129C15.9271 6.21542 15.9127 6.00853 15.8395 5.81935Z" fill="#FFDD00"/>
</g>
<g clip-path="url(#clip1_1355_6470)">
<path d="M37.1735 5.81935C37.1039 5.62537 36.9764 5.45742 36.8083 5.3382C36.6402 5.21898 36.4396 5.15422 36.2335 5.15268H32.1735C32.105 5.15265 32.0382 5.13152 31.9821 5.09215C31.926 5.05279 31.8835 4.99711 31.8602 4.93268L30.4068 0.799349C30.3311 0.612131 30.2012 0.451812 30.0337 0.338966C29.8662 0.226119 29.6688 0.165893 29.4668 0.166016C29.2614 0.166999 29.0614 0.231637 28.8942 0.351029C28.7271 0.470422 28.6011 0.638696 28.5335 0.832682L27.0735 4.94602C27.0502 5.01044 27.0076 5.06612 26.9516 5.10549C26.8955 5.14485 26.8287 5.16599 26.7602 5.16602H22.7002C22.4939 5.1666 22.2928 5.23098 22.1245 5.35033C21.9562 5.46968 21.8289 5.63817 21.7602 5.83268C21.694 6.02497 21.6873 6.2327 21.7408 6.42888C21.7943 6.62505 21.9056 6.8006 22.0602 6.93268L25.5135 9.79935C25.5654 9.84169 25.6033 9.89869 25.6223 9.9629C25.6414 10.0271 25.6406 10.0956 25.6202 10.1593L24.1668 14.5127C24.0984 14.7142 24.0961 14.9324 24.1602 15.1354C24.2243 15.3384 24.3515 15.5156 24.5233 15.6413C24.6951 15.767 24.9025 15.8346 25.1154 15.8342C25.3282 15.8339 25.5354 15.7656 25.7068 15.6393L29.2668 13.026C29.3235 12.9833 29.3925 12.9602 29.4635 12.9602C29.5345 12.9602 29.6035 12.9833 29.6602 13.026L33.2268 15.6393C33.3969 15.7808 33.6091 15.862 33.8302 15.87C34.0513 15.878 34.2688 15.8125 34.4486 15.6837C34.6285 15.5549 34.7606 15.37 34.8242 15.1582C34.8878 14.9463 34.8794 14.7193 34.8002 14.5127L33.3468 10.1593C33.3264 10.0956 33.3256 10.0271 33.3447 9.9629C33.3637 9.89869 33.4016 9.84169 33.4535 9.79935L36.9135 6.92602C37.0633 6.78923 37.1683 6.61037 37.2147 6.4129C37.2611 6.21542 37.2467 6.00853 37.1735 5.81935Z" fill="#FFDD00"/>
</g>
<g clip-path="url(#clip2_1355_6470)">
<path d="M58.5075 5.81935C58.4379 5.62537 58.3104 5.45742 58.1423 5.3382C57.9742 5.21898 57.7736 5.15422 57.5675 5.15268H53.5075C53.439 5.15265 53.3722 5.13152 53.3161 5.09215C53.26 5.05279 53.2174 4.99711 53.1942 4.93268L51.7408 0.799349C51.6651 0.612131 51.5351 0.451812 51.3677 0.338966C51.2002 0.226119 51.0028 0.165893 50.8008 0.166016C50.5954 0.166999 50.3954 0.231637 50.2282 0.351029C50.0611 0.470422 49.935 0.638696 49.8675 0.832682L48.4075 4.94602C48.3842 5.01044 48.3416 5.06612 48.2856 5.10549C48.2295 5.14485 48.1627 5.16599 48.0942 5.16602H44.0342C43.8278 5.1666 43.6268 5.23098 43.4585 5.35033C43.2902 5.46968 43.1629 5.63817 43.0942 5.83268C43.028 6.02497 43.0213 6.2327 43.0748 6.42888C43.1283 6.62505 43.2396 6.8006 43.3942 6.93268L46.8475 9.79935C46.8994 9.84169 46.9373 9.89869 46.9563 9.9629C46.9754 10.0271 46.9746 10.0956 46.9542 10.1593L45.5008 14.5127C45.4324 14.7142 45.43 14.9324 45.4941 15.1354C45.5583 15.3384 45.6855 15.5156 45.8573 15.6413C46.0291 15.767 46.2365 15.8346 46.4494 15.8342C46.6622 15.8339 46.8694 15.7656 47.0408 15.6393L50.6008 13.026C50.6575 12.9833 50.7265 12.9602 50.7975 12.9602C50.8685 12.9602 50.9375 12.9833 50.9942 13.026L54.5608 15.6393C54.7309 15.7808 54.9431 15.862 55.1642 15.87C55.3853 15.878 55.6028 15.8125 55.7826 15.6837C55.9625 15.5549 56.0946 15.37 56.1582 15.1582C56.2218 14.9463 56.2133 14.7193 56.1342 14.5127L54.6808 10.1593C54.6604 10.0956 54.6596 10.0271 54.6786 9.9629C54.6977 9.89869 54.7356 9.84169 54.7875 9.79935L58.2475 6.92602C58.3973 6.78923 58.5023 6.61037 58.5487 6.4129C58.595 6.21542 58.5807 6.00853 58.5075 5.81935Z" fill="#FFDD00"/>
</g>
<g clip-path="url(#clip3_1355_6470)">
<path d="M79.8395 5.81935C79.7699 5.62537 79.6425 5.45742 79.4744 5.3382C79.3062 5.21898 79.1056 5.15422 78.8995 5.15268H74.8395C74.771 5.15265 74.7042 5.13152 74.6481 5.09215C74.5921 5.05279 74.5495 4.99711 74.5262 4.93268L73.0729 0.799349C72.9971 0.612131 72.8672 0.451812 72.6997 0.338966C72.5322 0.226119 72.3348 0.165893 72.1329 0.166016C71.9274 0.166999 71.7274 0.231637 71.5602 0.351029C71.3931 0.470422 71.2671 0.638696 71.1995 0.832682L69.7395 4.94602C69.7162 5.01044 69.6737 5.06612 69.6176 5.10549C69.5615 5.14485 69.4947 5.16599 69.4262 5.16602H65.3662C65.1599 5.1666 64.9588 5.23098 64.7905 5.35033C64.6222 5.46968 64.495 5.63817 64.4262 5.83268C64.3601 6.02497 64.3533 6.2327 64.4068 6.42888C64.4603 6.62505 64.5716 6.8006 64.7262 6.93268L68.1795 9.79935C68.2314 9.84169 68.2693 9.89869 68.2884 9.9629C68.3074 10.0271 68.3066 10.0956 68.2862 10.1593L66.8329 14.5127C66.7644 14.7142 66.7621 14.9324 66.8262 15.1354C66.8903 15.3384 67.0175 15.5156 67.1893 15.6413C67.3611 15.767 67.5685 15.8346 67.7814 15.8342C67.9943 15.8339 68.2015 15.7656 68.3729 15.6393L71.9329 13.026C71.9895 12.9833 72.0586 12.9602 72.1295 12.9602C72.2005 12.9602 72.2695 12.9833 72.3262 13.026L75.8929 15.6393C76.0629 15.7808 76.2751 15.862 76.4962 15.87C76.7173 15.878 76.9348 15.8125 77.1147 15.6837C77.2945 15.5549 77.4266 15.37 77.4902 15.1582C77.5538 14.9463 77.5454 14.7193 77.4662 14.5127L76.0129 10.1593C75.9924 10.0956 75.9916 10.0271 76.0107 9.9629C76.0297 9.89869 76.0676 9.84169 76.1195 9.79935L79.5795 6.92602C79.7293 6.78923 79.8343 6.61037 79.8807 6.4129C79.9271 6.21542 79.9127 6.00853 79.8395 5.81935Z" fill="#FFDD00"/>
</g>
<g clip-path="url(#clip4_1355_6470)">
<path d="M101.174 5.81935C101.104 5.62537 100.976 5.45742 100.808 5.3382C100.64 5.21898 100.44 5.15422 100.234 5.15268H96.1735C96.105 5.15265 96.0382 5.13152 95.9821 5.09215C95.926 5.05279 95.8835 4.99711 95.8602 4.93268L94.4068 0.799349C94.3311 0.612131 94.2012 0.451812 94.0337 0.338966C93.8662 0.226119 93.6688 0.165893 93.4668 0.166016C93.2614 0.166999 93.0614 0.231637 92.8942 0.351029C92.7271 0.470422 92.6011 0.638696 92.5335 0.832682L91.0735 4.94602C91.0502 5.01044 91.0076 5.06612 90.9516 5.10549C90.8955 5.14485 90.8287 5.16599 90.7602 5.16602H86.7002C86.4939 5.1666 86.2928 5.23098 86.1245 5.35033C85.9562 5.46968 85.8289 5.63817 85.7602 5.83268C85.694 6.02497 85.6873 6.2327 85.7408 6.42888C85.7943 6.62505 85.9056 6.8006 86.0602 6.93268L89.5135 9.79935C89.5654 9.84169 89.6033 9.89869 89.6223 9.9629C89.6414 10.0271 89.6406 10.0956 89.6202 10.1593L88.1668 14.5127C88.0984 14.7142 88.0961 14.9324 88.1602 15.1354C88.2243 15.3384 88.3515 15.5156 88.5233 15.6413C88.6951 15.767 88.9025 15.8346 89.1154 15.8342C89.3282 15.8339 89.5354 15.7656 89.7068 15.6393L93.2668 13.026C93.3235 12.9833 93.3925 12.9602 93.4635 12.9602C93.5345 12.9602 93.6035 12.9833 93.6602 13.026L97.2268 15.6393C97.3969 15.7808 97.6091 15.862 97.8302 15.87C98.0513 15.878 98.2688 15.8125 98.4486 15.6837C98.6285 15.5549 98.7606 15.37 98.8242 15.1582C98.8878 14.9463 98.8794 14.7193 98.8002 14.5127L97.3468 10.1593C97.3264 10.0956 97.3256 10.0271 97.3447 9.9629C97.3637 9.89869 97.4016 9.84169 97.4535 9.79935L100.914 6.92602C101.063 6.78923 101.168 6.61037 101.215 6.4129C101.261 6.21542 101.247 6.00853 101.174 5.81935Z" fill="#FFDD00"/>
</g>
<defs>
<clipPath id="clip0_1355_6470">
<rect width="16" height="16" fill="white" transform="translate(0.134766)"/>
</clipPath>
<clipPath id="clip1_1355_6470">
<rect width="16" height="16" fill="white" transform="translate(21.4688)"/>
</clipPath>
<clipPath id="clip2_1355_6470">
<rect width="16" height="16" fill="white" transform="translate(42.8008)"/>
</clipPath>
<clipPath id="clip3_1355_6470">
<rect width="16" height="16" fill="white" transform="translate(64.1348)"/>
</clipPath>
<clipPath id="clip4_1355_6470">
<rect width="16" height="16" fill="white" transform="translate(85.4688)"/>
</clipPath>
</defs>
</svg>
