<svg width="18" height="18" viewBox="0 0 18 18" fill="none" xmlns="http://www.w3.org/2000/svg">
<path fill-rule="evenodd" clip-rule="evenodd" d="M10.9635 12.3145C9.61561 13.3914 7.90657 13.9113 6.18734 13.7675C4.46812 13.6237 2.86921 12.8271 1.71901 11.5412C0.568806 10.2553 -0.045372 8.57784 0.00261415 6.85327C0.0506003 5.12871 0.757107 3.48797 1.97703 2.26805C3.19696 1.04812 4.83769 0.341616 6.56226 0.29363C8.28682 0.245644 9.9643 0.859821 11.2502 2.01002C12.5361 3.16022 13.3327 4.75913 13.4765 6.47836C13.6203 8.19759 13.1004 9.90663 12.0235 11.2545L17.1795 16.4095C17.2531 16.4781 17.3122 16.5609 17.3532 16.6529C17.3942 16.7449 17.4163 16.8442 17.418 16.9449C17.4198 17.0457 17.4013 17.1457 17.3636 17.2391C17.3259 17.3325 17.2697 17.4173 17.1985 17.4885C17.1273 17.5597 17.0424 17.6159 16.9491 17.6536C16.8557 17.6913 16.7556 17.7098 16.6549 17.7081C16.5542 17.7063 16.4549 17.6842 16.3629 17.6433C16.2709 17.6023 16.1881 17.5432 16.1195 17.4695L10.9635 12.3145ZM3.03746 10.7525C2.3035 10.0184 1.80361 9.0833 1.60097 8.06524C1.39833 7.04719 1.50203 5.99191 1.89897 5.03277C2.29591 4.07364 2.96827 3.2537 3.83107 2.67657C4.69388 2.09945 5.7084 1.79105 6.74643 1.79036C7.78445 1.78966 8.79939 2.09669 9.66297 2.67265C10.5266 3.24861 11.2 4.06764 11.5982 5.02624C11.9965 5.98485 12.1016 7.03998 11.9003 8.05831C11.6991 9.07664 11.2004 10.0125 10.4675 10.7475L10.4625 10.7525L10.4575 10.7565C9.47255 11.7391 8.13788 12.2906 6.74663 12.2899C5.35537 12.2891 4.0213 11.7362 3.03746 10.7525Z" fill="#1D2A3B"/>
</svg>
