<svg width="18" height="18" viewBox="0 0 18 18" fill="none" xmlns="http://www.w3.org/2000/svg">
<g clip-path="url(#clip0_904_2124)">
<path d="M3.375 10.6875C3.375 10.9969 3.62812 11.25 3.9375 11.25H8.06836L4.69336 7.875H3.9375C3.62812 7.875 3.375 8.12813 3.375 8.4375V10.6875ZM9 0C4.02891 0 0 4.02891 0 9C0 13.9711 4.02891 18 9 18C13.9711 18 18 13.9711 18 9C18 4.02891 13.9711 0 9 0ZM9 15.75C5.27695 15.75 2.25 12.723 2.25 9C2.25 7.54453 2.71758 6.19805 3.50508 5.09414L12.9059 14.4949C11.802 15.2824 10.4555 15.75 9 15.75ZM10.5891 9H13.5V10.125H11.7141L10.5891 9ZM14.4949 12.9059L12.8391 11.25H14.0625C14.3719 11.25 14.625 10.9969 14.625 10.6875V8.4375C14.625 8.12813 14.3719 7.875 14.0625 7.875H9.46406L5.09414 3.50508C6.19805 2.71758 7.54453 2.25 9 2.25C12.723 2.25 15.75 5.27695 15.75 9C15.75 10.4555 15.2824 11.802 14.4949 12.9059ZM11.2711 4.5C10.7227 4.5 10.2656 4.10625 10.1672 3.58945C10.1426 3.46289 10.0266 3.375 9.89648 3.375H9.32695C9.15117 3.375 9.02109 3.5332 9.0457 3.70547C9.20742 4.7918 10.1426 5.625 11.2711 5.625C11.8195 5.625 12.2766 6.01875 12.375 6.53555C12.3996 6.66211 12.5156 6.75 12.6457 6.75H13.2152C13.391 6.75 13.5211 6.5918 13.4965 6.41953C13.3348 5.3332 12.3996 4.5 11.2711 4.5Z" fill="#707070"/>
</g>
<defs>
<clipPath id="clip0_904_2124">
<rect width="18" height="18" fill="white"/>
</clipPath>
</defs>
</svg>
