<svg width="12" height="12" viewBox="0 0 12 12" fill="none" xmlns="http://www.w3.org/2000/svg">
<path d="M11.9476 4.31975C11.8938 4.17153 11.7954 4.0432 11.6655 3.9521C11.5357 3.861 11.3807 3.81152 11.2216 3.81034H8.08567C8.03275 3.81032 7.98113 3.79417 7.93783 3.76409C7.89453 3.73401 7.86164 3.69147 7.84365 3.64224L6.72112 0.483934C6.66262 0.340879 6.56225 0.218379 6.43289 0.132152C6.30352 0.0459256 6.15106 -9.34801e-05 5.99507 1.42568e-07C5.83642 0.000751282 5.6819 0.0501415 5.5528 0.14137C5.4237 0.232599 5.32635 0.361178 5.27418 0.509404L4.1465 3.65243C4.12851 3.70166 4.09562 3.7442 4.05232 3.77428C4.00901 3.80436 3.95739 3.82051 3.90448 3.82053H0.768595C0.60924 3.82098 0.453925 3.87017 0.323941 3.96137C0.193958 4.05257 0.0956696 4.1813 0.0425518 4.32994C-0.00852864 4.47686 -0.0137457 4.63559 0.0275789 4.78549C0.0689034 4.93539 0.154858 5.06952 0.274268 5.17045L2.94157 7.36089C2.98165 7.39325 3.01095 7.4368 3.02564 7.48586C3.04034 7.53493 3.03975 7.58724 3.02396 7.63597L1.90143 10.9624C1.84856 11.1164 1.84675 11.2831 1.89627 11.4382C1.94579 11.5933 2.04404 11.7287 2.17674 11.8248C2.30943 11.9208 2.46965 11.9724 2.63407 11.9722C2.79848 11.9719 2.95853 11.9197 3.0909 11.8233L5.8406 9.82641C5.88436 9.79376 5.93769 9.7761 5.9925 9.7761C6.04731 9.7761 6.10064 9.79376 6.1444 9.82641L8.89925 11.8233C9.0306 11.9314 9.19449 11.9934 9.36526 11.9995C9.53603 12.0056 9.70403 11.9556 9.84295 11.8571C9.98188 11.7587 10.0839 11.6175 10.133 11.4556C10.1822 11.2937 10.1756 11.1202 10.1145 10.9624L8.99193 7.63597C8.97614 7.58724 8.97556 7.53493 8.99025 7.48586C9.00495 7.4368 9.03424 7.39325 9.07432 7.36089L11.7468 5.16536C11.8625 5.06084 11.9436 4.92417 11.9794 4.77328C12.0152 4.62239 12.0041 4.4643 11.9476 4.31975Z" fill="#FFC515"/>
</svg>
