<svg width="80" height="80" viewBox="0 0 80 80" fill="none" xmlns="http://www.w3.org/2000/svg">
<g clip-path="url(#clip0_918_2197)">
<path d="M77.7136 10.9364C76.5368 9.75744 74.6272 9.75541 73.4504 10.9313L37.2796 47.0067L24.2293 32.8328C23.1016 31.6087 21.195 31.5293 19.9689 32.6568C18.7438 33.7845 18.6654 35.692 19.793 36.9171L34.9689 53.3985C35.5247 54.0026 36.3025 54.3534 37.1227 54.3704C37.1447 54.3714 37.166 54.3714 37.1871 54.3714C37.9841 54.3714 38.7508 54.0548 39.3157 53.492L77.7077 15.2006C78.8875 14.0248 78.8896 12.1153 77.7136 10.9364Z" fill="#1D2A3B"/>
<path d="M76.9848 36.9848C75.3195 36.9848 73.9698 38.3345 73.9698 40C73.9698 58.7317 58.7317 73.9698 40 73.9698C21.2694 73.9698 6.03016 58.7317 6.03016 40C6.03016 21.2694 21.2694 6.03016 40 6.03016C41.6653 6.03016 43.0152 4.68047 43.0152 3.01516C43.0152 1.34969 41.6653 0 40 0C17.9437 0 0 17.9437 0 40C0 62.0553 17.9437 80 40 80C62.0553 80 80 62.0553 80 40C80 38.3347 78.6503 36.9848 76.9848 36.9848Z" fill="#1D2A3B"/>
</g>
<defs>
<clipPath id="clip0_918_2197">
<rect width="80" height="80" fill="white"/>
</clipPath>
</defs>
</svg>
