<svg width="16" height="16" viewBox="0 0 16 16" fill="none" xmlns="http://www.w3.org/2000/svg">
<g clip-path="url(#clip0_894_2009)">
<path fill-rule="evenodd" clip-rule="evenodd" d="M6.72396 1.06192C6.83096 0.821171 7.06971 0.666016 7.33317 0.666016C8.04041 0.666016 8.71869 0.946967 9.21879 1.44706C9.71889 1.94716 9.99984 2.62544 9.99984 3.33268V5.33268H13.1031C13.3916 5.33001 13.6773 5.38979 13.9405 5.50794C14.205 5.62666 14.4406 5.80146 14.6308 6.02024C14.8211 6.23902 14.9615 6.49655 15.0423 6.77498C15.1231 7.05341 15.1425 7.34608 15.099 7.63272L14.179 13.6326C14.1789 13.6328 14.179 13.6325 14.179 13.6326C14.1065 14.1093 13.8643 14.5444 13.4969 14.8566C13.1304 15.1682 12.6639 15.3371 12.183 15.3327H2.6665C2.13607 15.3327 1.62736 15.122 1.25229 14.7469C0.877218 14.3718 0.666504 13.8631 0.666504 13.3327V8.66602C0.666504 8.13558 0.877218 7.62687 1.25229 7.2518C1.62736 6.87673 2.13607 6.66602 2.6665 6.66602H4.23325L6.72396 1.06192ZM3.99984 7.99935H2.6665C2.48969 7.99935 2.32012 8.06959 2.1951 8.19461C2.07007 8.31963 1.99984 8.4892 1.99984 8.66602V13.3327C1.99984 13.5095 2.07007 13.6791 2.1951 13.8041C2.32012 13.9291 2.48969 13.9993 2.6665 13.9993H3.99984V7.99935ZM5.33317 13.9993H12.194C12.3548 14.0012 12.5108 13.9449 12.6333 13.8407C12.7559 13.7366 12.8366 13.5917 12.8607 13.4327L13.7807 7.43264C13.7807 7.43273 13.7807 7.43255 13.7807 7.43264C13.7952 7.33717 13.7888 7.23945 13.7618 7.14672C13.7349 7.05391 13.6881 6.96807 13.6247 6.89514C13.5613 6.82222 13.4827 6.76395 13.3946 6.72438C13.3064 6.68481 13.2107 6.66488 13.1141 6.66597L13.1065 6.66606L9.33317 6.66602C8.96498 6.66602 8.6665 6.36754 8.6665 5.99935V3.33268C8.6665 2.97906 8.52603 2.63992 8.27598 2.38987C8.12408 2.23798 7.93931 2.12652 7.73839 2.06241L5.33317 7.47416V13.9993Z" fill="white"/>
</g>
<defs>
<clipPath id="clip0_894_2009">
<rect width="16" height="16" fill="white"/>
</clipPath>
</defs>
</svg>
