<svg width="18" height="18" viewBox="0 0 18 18" fill="none" xmlns="http://www.w3.org/2000/svg">
<g clip-path="url(#clip0_904_2110)">
<path fill-rule="evenodd" clip-rule="evenodd" d="M4.5 5.25C4.5 4.00736 5.50736 3 6.75 3C7.99264 3 9 4.00736 9 5.25C9 6.49264 7.99264 7.5 6.75 7.5C5.50736 7.5 4.5 6.49264 4.5 5.25ZM6.75 1.5C4.67893 1.5 3 3.17893 3 5.25C3 7.32107 4.67893 9 6.75 9C8.82107 9 10.5 7.32107 10.5 5.25C10.5 3.17893 8.82107 1.5 6.75 1.5ZM3.75 10.5C2.75544 10.5 1.80161 10.8951 1.09835 11.5984C0.395088 12.3016 0 13.2554 0 14.25V15.75C0 16.1642 0.335786 16.5 0.75 16.5C1.16421 16.5 1.5 16.1642 1.5 15.75V14.25C1.5 13.6533 1.73705 13.081 2.15901 12.659C2.58097 12.2371 3.15326 12 3.75 12H9.75C10.3467 12 10.919 12.2371 11.341 12.659C11.7629 13.081 12 13.6533 12 14.25V15.75C12 16.1642 12.3358 16.5 12.75 16.5C13.1642 16.5 13.5 16.1642 13.5 15.75V14.25C13.5 13.2554 13.1049 12.3016 12.4017 11.5984C11.6984 10.8951 10.7446 10.5 9.75 10.5H3.75ZM14.274 11.1594C14.3776 10.7583 14.7866 10.5171 15.1877 10.6207C15.9922 10.8284 16.7049 11.2974 17.214 11.9541C17.723 12.6108 17.9996 13.4179 18.0002 14.2488V15.7494C18.0002 16.1636 17.6644 16.4994 17.2502 16.4994C16.836 16.4994 16.5002 16.1636 16.5002 15.7494V14.2499C16.4998 13.7515 16.3338 13.267 16.0285 12.8731C15.723 12.4791 15.2954 12.1977 14.8127 12.073C14.4116 11.9695 14.1704 11.5604 14.274 11.1594ZM12.1862 1.6203C11.7849 1.51756 11.3764 1.75956 11.2736 2.16083C11.1709 2.5621 11.4129 2.97068 11.8142 3.07342C12.2981 3.19734 12.7271 3.47882 13.0334 3.87347C13.3398 4.26813 13.5061 4.75351 13.5061 5.25311C13.5061 5.75271 13.3398 6.23809 13.0334 6.63275C12.7271 7.0274 12.2981 7.30888 11.8142 7.4328C11.4129 7.53554 11.1709 7.94412 11.2736 8.34539C11.3764 8.74666 11.7849 8.98866 12.1862 8.88592C12.9928 8.67939 13.7078 8.21026 14.2184 7.55251C14.7289 6.89475 15.0061 6.08577 15.0061 5.25311C15.0061 4.42045 14.7289 3.61147 14.2184 2.95371C13.7078 2.29596 12.9928 1.82683 12.1862 1.6203Z" fill="#707070"/>
</g>
<defs>
<clipPath id="clip0_904_2110">
<rect width="18" height="18" fill="white"/>
</clipPath>
</defs>
</svg>
