<svg width="25" height="24" viewBox="0 0 25 24" fill="none" xmlns="http://www.w3.org/2000/svg">
<path fill-rule="evenodd" clip-rule="evenodd" d="M4.65748 15.4645C5.59119 14.5268 6.85757 14 8.17803 14H16.1441C17.4646 14 18.731 14.5268 19.6647 15.4645C20.5984 16.4021 21.1229 17.6739 21.1229 19V21C21.1229 21.5523 20.6771 22 20.1272 22C19.5772 22 19.1314 21.5523 19.1314 21V19C19.1314 18.2044 18.8167 17.4413 18.2565 16.8787C17.6962 16.3161 16.9364 16 16.1441 16H8.17803C7.38576 16 6.62593 16.3161 6.0657 16.8787C5.50548 17.4413 5.19074 18.2044 5.19074 19V21C5.19074 21.5523 4.74493 22 4.19498 22C3.64504 22 3.19922 21.5523 3.19922 21V19C3.19922 17.6739 3.72377 16.4021 4.65748 15.4645Z" fill="white"/>
<path fill-rule="evenodd" clip-rule="evenodd" d="M12.1609 4C10.5111 4 9.17365 5.34315 9.17365 7C9.17365 8.65685 10.5111 10 12.1609 10C13.8108 10 15.1482 8.65685 15.1482 7C15.1482 5.34315 13.8108 4 12.1609 4ZM7.18213 7C7.18213 4.23858 9.41122 2 12.1609 2C14.9107 2 17.1398 4.23858 17.1398 7C17.1398 9.76142 14.9107 12 12.1609 12C9.41122 12 7.18213 9.76142 7.18213 7Z" fill="white"/>
</svg>
