<svg width="810" height="238" viewBox="0 0 810 238" fill="none" xmlns="http://www.w3.org/2000/svg">
<path d="M6 237.5V36.5L44 8L130 67.5V136.75V206H106V148H92V136.5L159.5 88.5L227 136.5V148H212V231H51.5V36.5" stroke="#00315C" stroke-width="12"/>
<path d="M124.5 141L135.5 133.5V113.549L124.5 121.368V141Z" stroke="url(#paint0_linear_1292_4678)"/>
<path d="M323.488 122.232C314.453 122.232 306.763 120.552 300.416 117.192C294.144 113.832 289.365 109.128 286.08 103.08C282.795 97.032 281.152 89.976 281.152 81.912C281.152 73.5493 282.869 66.3067 286.304 60.184C289.813 53.9867 294.816 49.208 301.312 45.848C307.808 42.488 315.648 40.808 324.832 40.808C328.491 40.808 332.075 41.144 335.584 41.816C339.093 42.4133 342.304 43.3467 345.216 44.616C348.203 45.8107 350.741 47.2293 352.832 48.872L346.56 64.776C343.051 62.536 339.579 60.9307 336.144 59.96C332.709 58.9147 328.976 58.392 324.944 58.392C317.403 58.392 311.765 60.408 308.032 64.44C304.373 68.3973 302.544 74.2213 302.544 81.912C302.544 89.528 304.411 95.2773 308.144 99.16C311.877 103.043 317.403 104.984 324.72 104.984C326.96 104.984 329.387 104.76 332 104.312C334.688 103.864 337.376 103.229 340.064 102.408L336.256 110.136V90.984H320.464V76.536H353.056V116.184C350.293 117.453 347.269 118.536 343.984 119.432C340.773 120.328 337.413 121 333.904 121.448C330.469 121.971 326.997 122.232 323.488 122.232ZM366.84 121V42.04H404.92C413.432 42.04 420.003 43.8693 424.632 47.528C429.336 51.1867 431.688 56.152 431.688 62.424C431.688 67.0533 430.344 71.0107 427.656 74.296C425.043 77.5813 421.459 79.8213 416.904 81.016V79.224C420.563 79.896 423.624 81.0907 426.088 82.808C428.552 84.5253 430.456 86.728 431.8 89.416C433.144 92.0293 433.816 95.0907 433.816 98.6C433.816 103.155 432.696 107.112 430.456 110.472C428.216 113.832 425.005 116.445 420.824 118.312C416.717 120.104 411.789 121 406.04 121H366.84ZM386.552 105.88H403.24C404.808 105.88 406.189 105.768 407.384 105.544C408.579 105.32 409.587 104.984 410.408 104.536C411.229 104.088 411.939 103.528 412.536 102.856C413.133 102.109 413.544 101.288 413.768 100.392C414.067 99.4213 414.216 98.3387 414.216 97.144C414.216 96.024 414.067 95.016 413.768 94.12C413.544 93.1493 413.133 92.328 412.536 91.656C411.939 90.9093 411.229 90.312 410.408 89.864C409.587 89.416 408.579 89.08 407.384 88.856C406.189 88.632 404.808 88.52 403.24 88.52H386.552V105.88ZM386.552 73.4H401.224C404.957 73.4 407.683 72.728 409.4 71.384C411.192 70.04 412.088 67.9867 412.088 65.224C412.088 62.4613 411.192 60.4453 409.4 59.176C407.683 57.832 404.957 57.16 401.224 57.16H386.552V73.4ZM483.561 122.232C477.587 122.232 472.137 121.261 467.209 119.32C462.281 117.379 458.025 114.616 454.441 111.032C450.931 107.373 448.206 103.043 446.265 98.04C444.398 93.0373 443.465 87.512 443.465 81.464C443.465 75.3413 444.398 69.7787 446.265 64.776C448.206 59.7733 450.931 55.48 454.441 51.896C458.025 48.312 462.281 45.5867 467.209 43.72C472.137 41.7787 477.587 40.808 483.561 40.808C489.534 40.808 494.985 41.7787 499.913 43.72C504.841 45.5867 509.059 48.312 512.569 51.896C516.153 55.48 518.878 59.7733 520.745 64.776C522.686 69.704 523.657 75.2293 523.657 81.352C523.657 87.5493 522.686 93.1493 520.745 98.152C518.878 103.155 516.153 107.485 512.569 111.144C509.059 114.728 504.841 117.491 499.913 119.432C494.985 121.299 489.534 122.232 483.561 122.232ZM483.561 104.984C487.518 104.984 490.878 104.051 493.641 102.184C496.403 100.317 498.531 97.6293 500.024 94.12C501.518 90.6107 502.265 86.392 502.265 81.464C502.265 76.536 501.518 72.3173 500.024 68.808C498.606 65.2987 496.478 62.648 493.641 60.856C490.878 58.9893 487.518 58.056 483.561 58.056C479.678 58.056 476.318 58.9893 473.481 60.856C470.718 62.648 468.59 65.2987 467.096 68.808C465.603 72.3173 464.857 76.536 464.857 81.464C464.857 86.392 465.566 90.6107 466.985 94.12C468.478 97.6293 470.643 100.317 473.481 102.184C476.318 104.051 479.678 104.984 483.561 104.984ZM522.575 121L556.287 76.536V85.832L523.247 42.04H547.103L567.823 70.824H561.103L581.823 42.04H605.791L572.639 85.832V76.536L606.351 121H582.383L561.215 91.544H567.711L546.543 121H522.575Z" fill="#00315C"/>
<path d="M279.976 233V193.52H288.656V233H279.976ZM307.746 233V193.52H314.186L335.41 220.568H333.898V193.52H341.962V233H335.578L314.354 205.896H315.81V233H307.746ZM397.248 233V212.728L399.04 217.712L382.016 193.52H392.096L402.624 208.752H400.832L411.36 193.52H421.048L404.192 217.712L405.928 212.728V233H397.248ZM450.385 233.616C447.473 233.616 444.804 233.131 442.377 232.16C439.988 231.189 437.934 229.808 436.217 228.016C434.5 226.224 433.174 224.077 432.241 221.576C431.345 219.075 430.897 216.293 430.897 213.232C430.897 210.133 431.345 207.352 432.241 204.888C433.174 202.387 434.5 200.259 436.217 198.504C437.934 196.712 439.988 195.331 442.377 194.36C444.804 193.389 447.473 192.904 450.385 192.904C453.334 192.904 456.004 193.389 458.393 194.36C460.782 195.331 462.836 196.693 464.553 198.448C466.27 200.203 467.596 202.331 468.529 204.832C469.462 207.333 469.929 210.115 469.929 213.176C469.929 216.275 469.462 219.075 468.529 221.576C467.596 224.077 466.27 226.224 464.553 228.016C462.836 229.808 460.782 231.189 458.393 232.16C456.004 233.131 453.334 233.616 450.385 233.616ZM450.385 226.224C452.625 226.224 454.51 225.72 456.041 224.712C457.572 223.667 458.748 222.173 459.569 220.232C460.428 218.253 460.857 215.92 460.857 213.232C460.857 210.507 460.446 208.173 459.625 206.232C458.804 204.291 457.609 202.816 456.041 201.808C454.473 200.8 452.588 200.296 450.385 200.296C448.22 200.296 446.353 200.8 444.785 201.808C443.217 202.816 442.022 204.291 441.201 206.232C440.38 208.173 439.969 210.507 439.969 213.232C439.969 215.92 440.38 218.253 441.201 220.232C442.022 222.173 443.217 223.667 444.785 224.712C446.353 225.72 448.22 226.224 450.385 226.224ZM504.755 233.616C499.155 233.616 494.881 232.179 491.931 229.304C489.019 226.429 487.563 222.155 487.563 216.48V193.52H496.243V216.536C496.243 219.747 496.971 222.173 498.427 223.816C499.883 225.421 501.993 226.224 504.755 226.224C507.518 226.224 509.609 225.421 511.027 223.816C512.483 222.173 513.211 219.747 513.211 216.536V193.52H521.779V216.48C521.779 222.155 520.342 226.429 517.467 229.304C514.593 232.179 510.355 233.616 504.755 233.616ZM540.66 233V193.52H558.692C563.098 193.52 566.495 194.584 568.884 196.712C571.274 198.84 572.468 201.808 572.468 205.616C572.468 208.08 571.927 210.208 570.844 212C569.762 213.792 568.194 215.173 566.14 216.144C564.124 217.115 561.642 217.6 558.692 217.6L559.14 216.648H561.436C563.004 216.648 564.367 217.04 565.524 217.824C566.719 218.571 567.746 219.728 568.604 221.296L574.988 233H565.412L558.58 220.4C558.207 219.728 557.778 219.205 557.292 218.832C556.807 218.421 556.247 218.141 555.612 217.992C555.015 217.805 554.343 217.712 553.596 217.712H549.34V233H540.66ZM549.34 211.44H557.124C559.439 211.44 561.175 210.973 562.332 210.04C563.527 209.107 564.124 207.707 564.124 205.84C564.124 204.011 563.527 202.629 562.332 201.696C561.175 200.763 559.439 200.296 557.124 200.296H549.34V211.44ZM613.103 233L631.247 193.52H638.247L656.391 233H647.655L642.951 222.024L646.423 224.432H623.071L626.543 222.024L621.895 233H613.103ZM634.663 202.76L627.495 219.84L625.983 217.656H643.511L641.999 219.84L634.775 202.76H634.663ZM671.003 233V193.52H689.035C693.44 193.52 696.837 194.584 699.227 196.712C701.616 198.84 702.811 201.808 702.811 205.616C702.811 208.08 702.269 210.208 701.187 212C700.104 213.792 698.536 215.173 696.483 216.144C694.467 217.115 691.984 217.6 689.035 217.6L689.483 216.648H691.779C693.347 216.648 694.709 217.04 695.867 217.824C697.061 218.571 698.088 219.728 698.947 221.296L705.331 233H695.755L688.923 220.4C688.549 219.728 688.12 219.205 687.635 218.832C687.149 218.421 686.589 218.141 685.955 217.992C685.357 217.805 684.685 217.712 683.939 217.712H679.683V233H671.003ZM679.683 211.44H687.467C689.781 211.44 691.517 210.973 692.675 210.04C693.869 209.107 694.467 207.707 694.467 205.84C694.467 204.011 693.869 202.629 692.675 201.696C691.517 200.763 689.781 200.296 687.467 200.296H679.683V211.44ZM721.195 233V193.52H748.243V200.296H729.483V209.536H747.011V216.368H729.483V226.224H748.243V233H721.195ZM761.109 233L779.253 193.52H786.253L804.397 233H795.661L790.957 222.024L794.429 224.432H771.077L774.549 222.024L769.901 233H761.109ZM782.669 202.76L775.501 219.84L773.989 217.656H791.517L790.005 219.84L782.781 202.76H782.669Z" fill="#00315C"/>
<defs>
<linearGradient id="paint0_linear_1292_4678" x1="124" y1="121" x2="136" y2="142" gradientUnits="userSpaceOnUse">
<stop stop-color="#00315C"/>
<stop offset="1" stop-color="#00315C"/>
</linearGradient>
</defs>
</svg>
